# xmcd
# 
# Track frame offsets:
#     150
#     15550
#     27398
#     41973
#     54160
#     67090
#     92170
#     111445
#     128133
#     142315
#     158433
#     174920
#     192738
#     207958
# 
# Disc length: 2936 seconds
# 
# Revision: 3
# Processed by: cddbd v1.5.1PL2 Copyright (c) Steve Scherf et al.
# Submitted via: BonkEnc v1.0beta1
# 
DISCID=cc0b760e
DTITLE=Dagmar - Goldener Truck - Für meine Helden auf der Autobahn
DYEAR=1900
DGENRE=
TTITLE0=Darf ein Truck mit seinem Fahrer in den Himmel
TTITLE1=Dieter fährt,Petra putzt
TTITLE2=Trucker
TTITLE3=Fahrtenschreiber,Zeitmaschinen
TTITLE4=Ich fahr schon wieder um die Welt
TTITLE5=Jungs,was habt ihr falsch gemacht
TTITLE6=Du gingst in die Dunkelheit
TTITLE7=In meinem Herzen trag ich eine Uhr
TTITLE8=Ich mag starke Männer
TTITLE9=Bleib sauber ,Alter
TTITLE10=Ich fahr´ Laster wie  Papa
TTITLE11=Augen wie Regenbogen
TTITLE12=Du hast doch ein Rad ab
TTITLE13=Goldener Truck
EXTD=
EXTT0=
EXTT1=
EXTT2=
EXTT3=
EXTT4=
EXTT5=
EXTT6=
EXTT7=
EXTT8=
EXTT9=
EXTT10=
EXTT11=
EXTT12=
EXTT13=
PLAYORDER=
